<?xml version="1.0" encoding="UTF-8"?>
<!-- Generator: Adobe Illustrator 25.2.3, SVG Export Plug-In . SVG Version: 6.00 Build 0)  -->
<svg xmlns="http://www.w3.org/2000/svg" xmlns:xlink="http://www.w3.org/1999/xlink" version="1.1" id="Capa_1" x="0px" y="0px" viewBox="0 0 512 512" style="enable-background:new 0 0 512 512;" xml:space="preserve" width="512" height="512">
<g>
	<g>
		<g>
			<g>
				<g>
					<path style="fill:#6280FF;" d="M262.608,391.893c25.992-10.635,55.481-23.935,87.491-33.417       c33.367-9.884,64.362-14.337,93.112-19.67c6.316-1.171,10.247-7.511,8.475-13.686l-64.368-224.37       c-1.656-5.773-7.679-9.11-13.451-7.454L191.92,145.493L262.608,391.893z"/>
					<path style="fill:#6280FF;" d="M262.608,391.893c-27.676,4.762-59.732,9.118-91.9,18.047       c-33.532,9.308-62.174,21.964-89.379,32.684c-5.977,2.355-12.67-0.936-14.442-7.111L2.519,211.142       c-1.656-5.773,1.681-11.795,7.454-13.451l181.947-52.198L262.608,391.893z"/>
				</g>
				<path style="fill:#000E3F;" d="M389.333,100.17c-1.974-6.875-9.185-10.86-16.043-8.889l-181.947,52.197L9.396,195.675      c-6.874,1.974-10.863,9.171-8.892,16.045l64.37,224.369c2.108,7.348,10.096,11.295,17.222,8.483      c36.657-14.443,73.944-30.21,112.838-38.609c11.034-2.386,22.142-4.474,33.232-6.581c54.402-10.332,15.622,0.926,65.166-18.437      c57.589-22.507,64.983-24.293,150.263-40.079c3.591-0.667,6.752-2.828,8.67-5.928      C457.989,325.687,453.902,330.833,389.333,100.17z M229.973,394.782c-16.096,3.033-32.996,6.451-35.925,7.084      c-39.292,8.487-76.734,24.329-113.488,38.807c-4.897,1.93-10.244-0.811-11.657-5.738L4.533,210.565      c-1.336-4.653,1.365-9.527,6.018-10.861l179.932-51.619c0.506,1.763,1.335,4.653,2.429,8.466      c7.828,27.287,66.828,232.944,66.907,233.219C255.496,390.12,247.001,391.571,229.973,394.782z M442.829,336.746      c-39.071,7.243-79.08,13.657-116.802,27.258c-2.836,1.023-19.001,7.094-34.216,13.036c-16.142,6.309-24.114,9.58-27.963,11.576      c-6.386-22.254-61.707-215.1-69.335-241.686l179.932-51.619c4.643-1.324,9.527,1.363,10.858,6.015l64.37,224.371      C451.104,330.69,447.939,335.799,442.829,336.746z"/>
			</g>
			<g>
				<g>
					<g>
						<path style="fill:#FFFFFF;" d="M398.623,333.888l-72.9-254.109c20.54,11.382,43.718,5.152,43.718,5.152l69.683,242.896        c-5.331-0.12-11.489,0.095-18.267,0.979C412.188,329.938,404.706,331.876,398.623,333.888"/>
						<path style="fill:#FFFFFF;" d="M398.623,333.888c0,0-68.436,5.553-141.146,40.122l-69.143-241.013        c0,0,46.22-34.28,136.77-52.999c0.214-0.044,0.428-0.089,0.643-0.133L398.623,333.888z"/>
						<path style="fill:#FFFFFF;" d="M398.623,333.888l-72.9-254.109c20.54,11.382,43.718,5.152,43.718,5.152l69.683,242.896        c-5.331-0.12-11.489,0.095-18.267,0.979C412.188,329.938,404.706,331.876,398.623,333.888"/>
						<path style="fill:#FFFFFF;" d="M398.623,333.888c-16.114,1.764-33.775,4.597-52.596,9.019        c-35.037,8.231-64.721,19.763-88.55,31.103l-69.143-241.013c0,0,46.22-34.28,136.77-52.999        c0.214-0.044,0.428-0.089,0.643-0.133L398.623,333.888z"/>
						<path style="fill:#FFFFFF;" d="M116.529,414.817l-72.9-254.109c-11.382,20.54-34.337,27.545-34.337,27.545l69.683,242.896        c4.456-2.928,9.792-6.01,16.008-8.854C102.933,418.658,110.304,416.335,116.529,414.817"/>
						<path style="fill:#FFFFFF;" d="M116.529,414.817c0,0,60.972-31.572,140.949-40.807l-69.143-241.013        c0,0-57.364-4.564-144.066,27.569c-0.205,0.076-0.41,0.152-0.615,0.229L116.529,414.817z"/>
						<path style="fill:#FFFFFF;" d="M116.529,414.817l-72.9-254.109c-11.382,20.54-34.337,27.545-34.337,27.545l69.683,242.896        c4.456-2.928,9.792-6.01,16.008-8.854C102.933,418.658,110.304,416.335,116.529,414.817"/>
						<path style="fill:#FFFFFF;" d="M116.529,414.817c14.599-7.047,31.075-14.007,49.378-20.236        c34.071-11.595,65.355-17.554,91.571-20.571l-69.143-241.013c0,0-57.364-4.564-144.066,27.569        c-0.205,0.076-0.41,0.152-0.615,0.229L116.529,414.817z"/>
					</g>
					<g>
						<path style="fill:#FFCF00;" d="M247.597,305.725l-5.326-8.879c-0.98-1.634-0.45-3.754,1.184-4.733l4.438-2.661        c51.171-30.74,117.024-40.538,116.73-40.438c1.88-0.311,3.656,0.959,3.968,2.839l1.694,10.214        c0.809,4.879-6.13,4.17-7.947,4.816c-64.233,10.654-112.224,41.355-110.009,40.026        C250.697,307.889,248.577,307.359,247.597,305.725z"/>
						<path style="fill:#FFCF00;" d="M253.746,327.622l-5.164-8.968c-0.95-1.651-0.383-3.76,1.268-4.711l4.482-2.582        c22.265-12.838,55.963-24.55,54.67-24.078c1.79-0.652,3.771,0.27,4.423,2.06l3.544,9.726c0.652,1.79-0.27,3.77-2.06,4.423        l-4.863,1.772C260.481,323.327,257.247,333.703,253.746,327.622z"/>
						<path style="fill:#FFCF00;" d="M242.266,282.796l-5.356-8.853c-0.986-1.63-0.465-3.751,1.165-4.737l4.425-2.679        c51.531-31.161,114.783-39.862,114.534-39.777c1.88-0.308,3.655,0.966,3.963,2.846l1.676,10.218        c0.308,1.88-0.966,3.655-2.846,3.963c-0.247,0.085-60.173,8.372-108.396,37.512l-4.429,2.674        C245.37,284.948,243.251,284.425,242.266,282.796z"/>
						<path style="fill:#FFCF00;" d="M234.82,260.501l-5.548-8.733c-1.021-1.608-0.546-3.74,1.061-4.762l4.363-2.773        c52.003-33.081,117.081-41.313,116.829-41.226c1.884-0.29,3.645,1.002,3.935,2.886l1.573,10.233        c0.29,1.884-1.003,3.645-2.886,3.934c-0.247,0.087-61.409,7.758-110.198,38.735l-4.37,2.77        C237.97,262.584,235.84,262.108,234.82,260.501z"/>
					</g>
					<g>
						<path style="fill:#A7B1C4;" d="M344.873,92.181c3.063,9.37,5.931,18.796,8.902,28.193l8.584,28.285        c5.692,18.865,11.11,37.809,16.677,56.71c5.322,18.971,10.775,37.905,15.973,56.912l7.738,28.528        c2.468,9.541,5.04,19.052,7.416,28.62c0.206,0.829-0.3,1.668-1.129,1.874c-0.791,0.196-1.592-0.26-1.843-1.022        c-3.058-9.372-5.919-18.8-8.884-28.199l-8.563-28.29c-5.669-18.872-11.082-37.817-16.627-56.725        c-5.299-18.978-10.749-37.913-15.924-56.926l-7.716-28.534c-2.463-9.543-5.029-19.056-7.399-28.625        c-0.192-0.78,0.283-1.568,1.063-1.762C343.885,91.037,344.637,91.466,344.873,92.181z"/>
						<path style="fill:#A7B1C4;" d="M361.659,100.318c2.845,8.615,5.496,17.285,8.251,25.926l7.934,26.017        c5.257,17.354,10.242,34.787,15.376,52.177c4.888,17.46,9.907,34.882,14.672,52.378l7.088,26.261        c2.251,8.785,4.606,17.541,6.765,26.353c0.203,0.83-0.304,1.667-1.134,1.871c-0.788,0.193-1.586-0.261-1.838-1.018        c-2.841-8.616-5.485-17.289-8.233-25.932l-7.913-26.024c-5.234-17.36-10.216-34.794-15.327-52.19        c-4.865-17.467-9.88-34.89-14.623-52.392l-7.065-26.267c-2.246-8.787-4.595-17.544-6.748-26.358        c-0.192-0.78,0.286-1.568,1.068-1.758C360.672,99.18,361.422,99.607,361.659,100.318z"/>
						<path style="fill:#A7B1C4;" d="M36.76,180.574c3.063,9.37,5.931,18.797,8.902,28.193l8.583,28.285        c5.692,18.865,11.109,37.81,16.677,56.71c5.322,18.972,10.774,37.905,15.973,56.912l7.738,28.528        c2.467,9.541,5.04,19.052,7.416,28.62c0.206,0.829-0.3,1.668-1.129,1.874c-0.791,0.197-1.592-0.26-1.843-1.021        c-3.058-9.372-5.919-18.801-8.884-28.199l-8.563-28.29c-5.669-18.872-11.082-37.817-16.628-56.725        c-5.298-18.978-10.748-37.913-15.923-56.926l-7.717-28.534c-2.462-9.543-5.027-19.056-7.398-28.625        c-0.193-0.78,0.283-1.568,1.063-1.762C35.771,179.43,36.524,179.858,36.76,180.574z"/>
						<path style="fill:#A7B1C4;" d="M26.842,196.371c2.846,8.615,5.498,17.286,8.251,25.926l7.934,26.018        c5.258,17.354,10.242,34.787,15.376,52.176c4.889,17.46,9.907,34.882,14.673,52.378l7.086,26.26        c2.251,8.786,4.607,17.541,6.765,26.353c0.203,0.83-0.304,1.667-1.134,1.871c-0.788,0.193-1.585-0.261-1.838-1.018        c-2.84-8.616-5.485-17.289-8.233-25.931L67.81,354.38c-5.234-17.361-10.215-34.794-15.326-52.191        c-4.866-17.466-9.881-34.89-14.623-52.392l-7.066-26.267c-2.246-8.787-4.594-17.544-6.748-26.358        c-0.19-0.78,0.288-1.568,1.067-1.758C25.856,195.234,26.605,195.661,26.842,196.371z"/>
					</g>
				</g>
				<g>
					<path style="fill:#000E3F;" d="M441.14,327.25L371.456,84.354c-0.318-1.098-1.459-1.736-2.556-1.447       c-0.224,0.063-22.641,5.856-42.16-4.961c-0.612-0.339-1.336-0.326-1.949-0.02l-0.109,0.023       c-84.33,17.43-131.055,48.77-136.96,52.913c-7.205-0.381-63.437-2.182-144.191,27.743l-0.087,0.033       c-0.694,0.055-1.307,0.44-1.646,1.056C30.977,179.216,8.9,186.179,8.678,186.249c-1.09,0.335-1.714,1.483-1.401,2.58       l69.682,242.896c0.185,0.64,0.662,1.155,1.285,1.387c0.238,0.086,0.484,0.13,0.729,0.13c0.404,0,0.804-0.116,1.151-0.344       c5.004-3.288,10.297-6.215,15.73-8.697c6.785-3.105,13.908-5.577,21.17-7.349c0.082-0.02,0.144-0.076,0.222-0.105       c0.064-0.023,0.132-0.015,0.194-0.044c8.478-4.099,17.172-7.958,25.84-11.47c64.603-26.179,112.146-27.947,115.093-29.33       c36.132-17.1,73.976-29.198,112.484-35.959c9.25-1.622,18.667-2.96,27.992-3.974c0.049-0.005,0.09-0.038,0.14-0.047       c0.096-0.017,0.196-0.015,0.291-0.047c7.096-2.347,14.447-4.027,21.849-4.992c5.921-0.772,11.975-1.086,17.947-0.963       c0.017,0,0.034,0,0.048,0c0.647,0,1.261-0.298,1.658-0.814C441.19,328.578,441.323,327.89,441.14,327.25z M94.112,420.388       c-4.768,2.181-9.433,4.691-13.898,7.479L11.853,189.58c5.454-2.039,20.962-8.874,31.069-23.734l70.996,247.47       C107.131,415.103,100.479,417.478,94.112,420.388z M141.707,401.348c-7.991,3.24-16.001,6.769-23.848,10.504L46.204,162.084       c77.086-28.351,131.171-27.476,140.525-27.076c7.633,26.604,59.925,208.874,68.056,237.216       C215.577,377.032,177.543,386.827,141.707,401.348z M370.136,335.819c-38.087,6.684-75.526,18.542-111.321,35.249       L190.761,133.85c7.723-5.308,53.113-34.709,133.509-51.537l31.481,109.73l40.174,140.039       C387.32,333.068,378.657,334.322,370.136,335.819z M420.586,326.73c-6.944,0.905-13.843,2.419-20.543,4.503L329.045,83.762       c16.452,7.243,33.22,4.819,38.93,3.654l68.36,238.286C431.068,325.707,425.785,326.051,420.586,326.73z"/>
					<path style="fill:#000E3F;" d="M362.997,258.03c-0.188-1.141-1.268-1.906-2.409-1.726       c-61.127,10.141-108.857,38.462-109.333,38.749c-2.37,1.421-0.233,5.015,2.157,3.591c0.467-0.279,47.551-28.201,107.86-38.205       C362.414,260.249,363.185,259.171,362.997,258.03z"/>
					<path style="fill:#000E3F;" d="M356.484,235.322c-0.188-1.143-1.264-1.909-2.407-1.728       c-61.168,10.03-108.838,38.58-109.312,38.867c-2.366,1.433-0.197,5.014,2.171,3.587c0.467-0.284,47.441-28.418,107.819-38.318       C355.896,237.541,356.671,236.465,356.484,235.322z"/>
					<path style="fill:#000E3F;" d="M321.608,113.782c-0.159-1.144-1.206-1.95-2.364-1.786       c-61.671,8.562-108.57,40.08-109.037,40.397c-0.956,0.652-1.204,1.955-0.554,2.91c0.407,0.597,1.064,0.917,1.736,0.917       c0.404,0,0.816-0.115,1.175-0.361c0.46-0.313,46.593-31.292,107.258-39.714C320.967,115.987,321.767,114.928,321.608,113.782z"/>
					<path style="fill:#000E3F;" d="M328.672,138.407c-0.159-1.146-1.201-1.959-2.364-1.786       c-61.674,8.562-108.57,40.082-109.037,40.397c-0.956,0.652-1.204,1.955-0.554,2.913c0.407,0.595,1.064,0.915,1.736,0.915       c0.404,0,0.816-0.116,1.177-0.361c0.457-0.313,46.54-31.285,107.256-39.714C328.032,140.611,328.831,139.552,328.672,138.407z"/>
					<path style="fill:#000E3F;" d="M335.735,163.031c-0.156-1.146-1.223-1.969-2.364-1.786       c-61.671,8.562-108.568,40.082-109.035,40.398c-0.956,0.652-1.204,1.954-0.554,2.912c0.407,0.595,1.064,0.915,1.736,0.915       c0.404,0,0.816-0.116,1.177-0.361c0.457-0.313,46.54-31.285,107.254-39.714C335.094,165.236,335.893,164.177,335.735,163.031z"/>
					<path style="fill:#000E3F;" d="M342.799,187.655c-0.157-1.143-1.218-1.952-2.364-1.786       c-61.671,8.562-108.568,40.082-109.035,40.398c-0.956,0.652-1.204,1.955-0.554,2.912c0.407,0.595,1.064,0.915,1.736,0.915       c0.404,0,0.816-0.115,1.177-0.361c0.458-0.313,46.541-31.285,107.254-39.714C342.159,189.86,342.958,188.801,342.799,187.655z"/>
					<path style="fill:#000E3F;" d="M349.789,212.002c-0.176-1.146-1.247-1.928-2.388-1.752       c-61.375,9.426-108.729,39.194-109.201,39.492c-0.977,0.621-1.264,1.916-0.643,2.893c0.397,0.628,1.076,0.973,1.769,0.973       c0.385,0,0.773-0.106,1.122-0.33c0.465-0.294,47.075-29.592,107.588-38.889C349.181,214.214,349.965,213.146,349.789,212.002z"/>
					<path style="fill:#000E3F;" d="M369.438,280.473c-0.2-1.141-1.29-1.899-2.424-1.704       c-60.964,10.615-108.943,37.976-109.422,38.25c-2.406,1.388-0.297,5.018,2.092,3.63c0.472-0.272,47.845-27.27,108.048-37.755       C368.873,282.697,369.636,281.612,369.438,280.473z"/>
					<path style="fill:#000E3F;" d="M373.321,300.753c-60.964,10.615-108.943,37.978-109.422,38.253       c-2.403,1.386-0.298,5.018,2.092,3.63c0.472-0.272,47.845-27.272,108.048-37.757c1.141-0.197,1.904-1.283,1.707-2.422       C375.547,301.316,374.44,300.558,373.321,300.753z"/>
					<path style="fill:#000E3F;" d="M220.896,303.762c-0.554,0.01-56.041,1.298-113.245,25.106       c-1.069,0.445-1.574,1.673-1.131,2.739c0.337,0.806,1.115,1.293,1.935,1.293c0.27,0,0.542-0.053,0.804-0.161       c56.443-23.49,111.167-24.776,111.714-24.788C223.647,307.9,223.787,303.823,220.896,303.762z"/>
					<path style="fill:#000E3F;" d="M207.93,262.613c1.151,0,2.087-0.927,2.094-2.08c0.01-1.156-0.922-2.102-2.077-2.109       c-0.599,0.017-56.489-0.144-113.531,24.4c-1.064,0.457-1.555,1.69-1.098,2.754c0.342,0.792,1.114,1.268,1.925,1.268       c0.277,0,0.559-0.055,0.828-0.171c55.177-23.743,109.288-24.063,111.76-24.063C207.894,262.613,207.91,262.611,207.93,262.613z       "/>
					<path style="fill:#000E3F;" d="M227.167,325.748c-0.551,0.019-55.738,2.258-113.057,25.575       c-1.071,0.436-1.586,1.659-1.151,2.73c0.33,0.813,1.115,1.307,1.94,1.307c0.265,0,0.532-0.051,0.789-0.156       c56.604-23.026,111.086-25.248,111.627-25.267C229.979,329.836,230.057,325.814,227.167,325.748z"/>
					<path style="fill:#000E3F;" d="M215.415,283.528c-0.017-1.146-0.951-2.063-2.094-2.063c-0.01,0-0.019,0-0.031,0       c-0.542,0.007-54.975,1.052-110.999,24.49c-1.066,0.448-1.569,1.673-1.124,2.742c0.337,0.804,1.114,1.288,1.933,1.288       c0.27,0,0.544-0.053,0.809-0.164c55.247-23.112,108.907-24.157,109.444-24.167       C214.508,285.636,215.432,284.686,215.415,283.528z"/>
					<path style="fill:#000E3F;" d="M194.039,214.477c1.191,0.022,2.13-0.857,2.173-2.015c0.043-1.155-0.857-2.128-2.012-2.174       c-0.573-0.029-57.047-1.882-113.87,23.551c-1.054,0.472-1.528,1.711-1.054,2.768c0.347,0.777,1.112,1.239,1.911,1.239       c0.286,0,0.578-0.06,0.857-0.185C137.947,212.643,193.458,214.465,194.039,214.477z"/>
					<path style="fill:#000E3F;" d="M201.103,239.101c1.119,0.031,2.13-0.859,2.173-2.014c0.043-1.156-0.857-2.128-2.012-2.174       c-0.563-0.019-57.047-1.882-113.87,23.551c-1.055,0.472-1.529,1.711-1.055,2.768c0.347,0.777,1.112,1.24,1.911,1.24       c0.286,0,0.578-0.06,0.857-0.185C145.012,237.267,200.523,239.082,201.103,239.101z"/>
					<path style="fill:#000E3F;" d="M233.553,347.734c-19.805,0-71.411,8.601-113.137,25.573c-1.071,0.436-1.586,1.658-1.151,2.73       c0.33,0.814,1.115,1.307,1.94,1.307c0.262,0,0.532-0.051,0.789-0.157c56.604-23.023,111.088-25.245,111.629-25.264       C236.352,351.82,236.27,347.734,233.553,347.734z"/>
					<path style="fill:#000E3F;" d="M89.85,204.657c-0.826,0.237-2.015,0.975-11.221,4.454l-0.183-0.464       c-2.708-7.89-3.919-10.549-6.888-17.768c0.656-0.588,3.337-1.704,4.581-1.716c1.616,4.528,3.863,9.493,5.526,13.972l0.01,0.028       c0.658-0.499,6.556-2.287,7.426-2.749c0.07,0.182,0.153,0.388,0.195,0.58c0.104,0.348,0.227,0.747,0.368,1.019       C90.782,204.439,90.646,204.344,89.85,204.657z"/>
					<path style="fill:#000E3F;" d="M102.877,196.373c0.46,1.105,0.88,2.37,0.909,3.53c-3.952,1.277-8.071,2.93-11.908,3.874       c-2.022-6.118-4.314-11.882-5.935-18.045c4.427-1.696,11.904-4.281,11.956-4.123c0.612,1.173,0.827,2.505,1.237,3.744       l0.009,0.025c-2.299,1.316-5.012,1.772-7.495,2.828l-0.087,0.027l-0.02,0.036c0.37,1.018,0.474,2.213,1.049,3.075l0.037,0.017       c1.187-0.304,2.397-0.733,3.595-1.099l0.007,0.026c0.597,1.118,0.815,2.363,1.27,3.646c-1.092,0.682-3.102,1.024-3.412,1.448       c0.136,1.096,0.723,2.482,1.089,3.298l0.037,0.015c2.552-0.843,5.03-1.425,7.644-2.377L102.877,196.373z"/>
					<path style="fill:#000E3F;" d="M114.544,183.355c-1.325,0.595-2.947,1.154-4.427,1.185c-0.064-2.085-4.093-1.759-3.867,0.341       c-0.022,0.265,0.104,0.489,0.199,0.723c0.559,0.769,1.376,0.747,2.232,0.628c2.151-0.359,4.301,0.204,5.869,1.417       c1.826,1.226,2.487,3.522,2.051,5.629c-0.341,2.458-2.405,4.059-4.843,4.641c-3.468,0.865-7.762-0.118-8.46-3.585l-0.021-0.081       l-0.023-0.08c1.333-0.567,3.182-0.874,4.501-1.263c0.772,2.236,5.088,1.111,3.935-1.253c-0.707-1.649-3.101-1.253-4.832-1.095       c-0.831,0.084-1.575-0.087-2.253-0.361c-4.485-2.141-4.024-7.51-0.642-9.965c1.717-1.248,4.524-1.758,6.624-1.499       c2.126,0.367,3.814,1.778,3.989,4.611L114.544,183.355z"/>
					<path style="fill:#000E3F;" d="M130.083,179.941c-1.357,0.522-3.004,0.994-4.485,0.948c0.048-2.087-3.993-1.975-3.879,0.131       c-0.037,0.265,0.077,0.497,0.158,0.734c0.517,0.796,1.335,0.818,2.194,0.745c2.168-0.244,4.284,0.432,5.784,1.725       c1.756,1.324,2.293,3.652,1.744,5.733c-0.474,2.435-2.619,3.925-5.086,4.377c-3.51,0.677-7.743-0.534-8.252-4.033l-0.017-0.082       l-0.019-0.081c1.363-0.495,3.225-0.702,4.562-1.02c0.65,2.275,5.02,1.38,3.996-1.04c-0.616-1.686-3.027-1.418-4.764-1.351       c-0.835,0.04-1.569-0.171-2.231-0.48c-4.36-2.379-3.612-7.715-0.101-9.986c1.781-1.154,4.611-1.514,6.691-1.142       c2.104,0.48,3.713,1.979,3.735,4.816L130.083,179.941z"/>
					<path style="fill:#000E3F;" d="M145.298,175.845c0.238,0.891,0.387,1.795,0.505,2.706c0.197,1.965,0.607,3.727,0.766,5.644       l0.057,0.919c0.118,1.304,0.006,2.699-0.544,3.886c-0.551,0.992-1.647,1.675-2.836,2.177c-1.067,0.482-2.205,0.724-3.396,0.833       c-1.682,0.131-3.334,0.062-4.297-1.275c-0.719-0.812-1.015-1.86-1.219-2.926c-0.586-2.83-1.296-5.67-1.555-8.583       c-0.239-1.649-0.193-3.457,0.835-4.946c0.18-0.227,0.364-0.426,0.614-0.606c2.463-1.61,6.214-2.163,8.8-0.92       c0.649,0.372,1.166,0.879,1.512,1.47C144.899,174.728,145.115,175.285,145.298,175.845z M142.037,179.583       c-0.006-0.029-0.244-0.918-0.376-1.544c-0.256-0.999-0.947-1.817-1.95-2.076c-0.863-0.169-1.729,0.225-2.29,0.766       c-0.614,0.606-0.994,1.316-1.11,2.123c-0.105,1.452,0.122,3.02,0.462,4.54c0.421,1.254,0.616,2.631,1.204,3.773       c1.021,1.326,3.584,1.08,4.615-0.382c0.608-1.028,0.305-0.98,0.196-2.594c-0.09-0.745-0.158-1.353-0.171-1.436l-0.214-1.315       L142.037,179.583z"/>
					<path style="fill:#000E3F;" d="M158.225,189.144c-1.644-2.583-3.33-4.993-4.535-7.234l-0.395-0.794       c-0.198-0.397-0.397-0.793-0.489-0.782c-0.12,0.013,0.228,3.943,0.576,7.034c0.096,0.856,0.187,1.657,0.287,2.288       c-0.442,0.162-0.865,0.237-1.319,0.29c-0.972,0.109-1.993,0.055-2.934,0.162l-0.218-1.933c-0.394-3.506-0.822-6.505-1.21-9.954       c-0.286-2.54-0.507-5.059-0.558-7.43c0.385-0.128,0.867-0.209,1.353-0.264c0.518-0.057,2.534-0.173,2.551-0.007       c0.73,1.287,1.024,1.449,1.928,2.912c0.301,0.498,2.976,4.335,3.068,4.324c0.112-0.095,0.113-0.907,0.042-1.542       c-0.165-1.461-0.392-2.667-0.542-3.991c-0.087-0.774-0.143-1.55-0.214-2.464c0.686-0.19,1.406-0.328,2.165-0.413       c0.759-0.085,1.435-0.106,2.024-0.059l1,8.888c0.204,1.544,0.383,3.144,0.561,4.717c0.12,1.077,0.199,2.047,0.313,3.067       c0.084,0.747,0.196,1.461,0.279,2.206l0.06,0.552c-0.087,0.038-0.287,0.173-0.985,0.252       C160.213,189.06,159.045,189.052,158.225,189.144z"/>
					<path style="fill:#000E3F;" d="M177.865,187.791c-1.008,0.042-2.173-0.023-3.002-0.073l0-0.028l-0.108-2.694       c-0.144-3.582,0.082-7.094-0.062-10.677c-0.006-0.196-0.012-0.307-0.05-0.5c-0.401-0.067-0.579,1.554-1.253,1.582       c-0.365,0.014-3.723-0.545-3.737-0.88c0.072-1.254,3.213-6.108,3.448-6.341c0.945-0.065,1.83-0.13,2.779-0.167       c1.068-0.044,2.109-0.058,3.212-0.018c0.185,1.577,0.276,3.103,0.34,4.659c0.17,4.248-0.002,8.372,0.168,12.62       c0.025,0.64,0.053,1.305,0.108,1.942C179.727,187.661,178.629,187.761,177.865,187.791z"/>
				</g>
			</g>
		</g>
		<g>
			<g>
				<path style="fill:#6280FF;" d="M492.017,150.226l16.426,23.46c2.576,3.656,1.644,8.689-2.013,11.265L351.349,293.553      c-3.615,2.547-8.66,1.684-11.223-1.981l-0.324-0.461l-15.791-22.53l-0.324-0.46c-2.572-3.679-1.668-8.753,1.957-11.287      l155.058-108.606C484.382,145.657,489.446,146.547,492.017,150.226z"/>
				<g>
					<path style="fill:#FFCF00;" d="M317.366,298.954c0.448,0.637,1.009,1.174,1.636,1.603l-11.841,8.301       c-0.487,0.343-1.077,0.455-1.65,0.332l-9.418-2.037l-10.541-2.279c-1.779-0.368-2.243-2.695-0.753-3.744l22.241-15.567       l0.975-0.687c0.184,0.721,0.51,1.444,0.968,2.094L317.366,298.954z"/>
					<polygon style="fill:#FFCF00;" points="449.852,169.84 467.108,194.478 475.571,206.549 383.616,270.964 380.317,273.268        372.559,262.2 354.602,236.535      "/>
				</g>
				<g style="opacity:0.5;">
					<polygon style="fill:#FD8A02;" points="467.108,194.478 475.571,206.549 383.616,270.964 380.317,273.268 372.559,262.2             "/>
					<path style="fill:#FD8A02;" d="M317.366,298.954c0.448,0.637,1.009,1.174,1.636,1.603l-11.841,8.301       c-0.487,0.343-1.077,0.455-1.65,0.332l-9.418-2.037c1.106-1.306,2.659-2.582,4.809-3.671       c7.534-3.829,7.011-13.085,6.138-17.919l0.975-0.687c0.184,0.721,0.51,1.444,0.968,2.094L317.366,298.954z"/>
				</g>
				<g>
					
						<rect x="353.446" y="236.909" transform="matrix(0.8191 -0.5737 0.5737 0.8191 -83.4303 254.0999)" style="fill:#FC09B2;" width="15.412" height="44.834"/>
					
						<rect x="461.319" y="161.356" transform="matrix(0.8191 -0.5737 0.5737 0.8191 -20.5691 302.3239)" style="fill:#FC09B2;" width="15.412" height="44.834"/>
					<g>
						<path style="fill:#FC09B2;" d="M399.28,246.599c-3.852,0.758-6.181-1.238-6.083-3.902c0.288-7.829,14.097-14.128,15.878-6.973        C409.94,239.202,405.421,245.391,399.28,246.599z"/>
					</g>
					<g>
						<path style="fill:#FC09B2;" d="M443.997,215.097c2.011-3.372,0.915-6.237-1.627-7.042        c-7.469-2.364-18.049,8.519-11.911,12.604C433.443,222.645,440.792,220.473,443.997,215.097z"/>
					</g>
					<path style="fill:#FC09B2;" d="M324.011,268.581l15.791,22.53l-13.461,9.422c-0.176,0.124-0.348,0.225-0.533,0.336       c-0.712,0.4-1.445,0.653-2.224,0.756c-0.16,0.032-0.316,0.04-0.485,0.058c-0.156,0.009-0.312,0.017-0.478,0.013       c-0.951,0.001-1.922-0.226-2.788-0.65c-0.131-0.07-0.284-0.144-0.424-0.228c-0.14-0.084-0.28-0.167-0.406-0.261       c-0.15-0.097-0.296-0.217-0.455-0.328c-0.104-0.089-0.216-0.192-0.328-0.295c-0.114-0.102-0.213-0.215-0.312-0.328       c-0.194-0.188-0.378-0.422-0.541-0.652l-8.383-11.985c-0.458-0.65-0.785-1.372-0.968-2.094       c-0.667-2.529,0.264-5.292,2.548-6.881l9.322-6.527L324.011,268.581z"/>
				</g>
				<g style="opacity:0.25;">
					<path style="fill:#000E3F;" d="M324.011,268.581l15.791,22.53l-13.461,9.422c-0.176,0.124-0.348,0.225-0.533,0.336       c-0.712,0.4-1.445,0.653-2.224,0.756c-0.16,0.032-0.316,0.04-0.485,0.058c-0.156,0.009-0.312,0.017-0.478,0.013       c-0.951,0.001-1.922-0.226-2.788-0.65c-0.131-0.07-0.284-0.144-0.424-0.228c-0.14-0.084-0.28-0.167-0.406-0.261       c-0.15-0.097-0.296-0.217-0.455-0.328c-0.104-0.089-0.216-0.192-0.328-0.295c-0.114-0.102-0.213-0.215-0.312-0.328       c-0.194-0.188-0.378-0.422-0.541-0.652l-1.179-1.702l0.299-0.352c0.46-0.324,11.975-8.598,3.399-25.432L324.011,268.581z"/>
					<path style="fill:#000E3F;" d="M492.017,150.226l16.388,23.406c2.585,3.67,1.682,8.743-1.975,11.319l-122.814,86.012       l91.955-64.414l-8.463-12.071l11.755-8.423c0,0,15.618-7.396-0.188-36.419l2.027-1.408       C484.382,145.657,489.446,146.547,492.017,150.226z"/>
					<path style="fill:#000E3F;" d="M372.559,262.2l7.758,11.068l-28.968,20.285c-3.602,2.538-8.638,1.688-11.204-1.955       c-0.009-0.013-0.009-0.013-0.019-0.027c-1.593-2.262-1.053-5.378,1.19-6.998L372.559,262.2z"/>
				</g>
			</g>
			<g>
				<path style="fill:#000E3F;" d="M417.825,210.664c-0.941,0.674-1.156,1.983-0.481,2.922c2.123,2.961,2.763,7.5-0.229,10.088      c-1.208,1.04-2.653,1.457-4.306,1.23c-2.253-0.308-4.585-1.834-5.943-3.885c-0.64-0.965-1.94-1.23-2.905-0.59      c-0.963,0.64-1.228,1.94-0.59,2.906c2.027,3.054,5.423,5.247,8.87,5.721c0.486,0.065,0.965,0.099,1.437,0.099      c2.299,0,4.412-0.787,6.176-2.313c4.874-4.21,4.097-11.231,0.893-15.696C420.073,210.204,418.764,209.988,417.825,210.664z"/>
				<path style="fill:#000E3F;" d="M390.695,223.532c-2.513,1.655-3.217,5.808-1.339,7.887c1.583,2.64,5.34,3.092,7.718,1.524      c2.916-1.922,3.208-5.74,1.596-7.992C396.693,222.185,393.25,221.849,390.695,223.532z"/>
				<path style="fill:#000E3F;" d="M425.157,199.278c-2.554,1.81-3.197,5.364-1.273,8.062c1.625,2.281,5.448,3.123,7.875,1.125      c2.318-1.323,3.168-5.373,1.282-7.92C431.213,198.077,427.637,197.52,425.157,199.278z"/>
				<path style="fill:#000E3F;" d="M510.16,172.486l-16.426-23.462c-3.228-4.614-9.611-5.736-14.233-2.51L324.443,255.117      c-2.217,1.548-3.697,3.883-4.167,6.571c-0.38,2.175-0.025,4.35,0.938,6.291l-11.849,8.293c-2.503,1.741-3.844,4.682-3.619,7.634      l-22.153,15.508c-1.37,0.965-2.032,2.645-1.692,4.284c0.342,1.649,1.579,2.886,3.206,3.223l19.964,4.316      c0.303,0.065,0.604,0.096,0.903,0.096c0.854,0,1.682-0.26,2.39-0.761l10.778-7.554c1.117,0.505,2.315,0.769,3.518,0.769      c1.714,0,3.428-0.513,4.882-1.538l11.869-8.307c1.486,1.563,3.401,2.633,5.567,3.011c0.595,0.106,1.187,0.156,1.776,0.156      c2.068,0,4.08-0.631,5.796-1.841l155.087-108.604c2.227-1.569,3.716-3.902,4.198-6.569      C512.321,177.41,511.724,174.707,510.16,172.486z M305.952,307.141L286,302.845l21.168-14.818      c0.031,0.048,0.065,0.094,0.099,0.142l8.386,11.992c0.029,0.041,0.06,0.082,0.089,0.123L305.952,307.141z M325.134,298.822      c-1.475,1.033-3.459,1.038-4.944,0.01c-0.448-0.306-0.821-0.672-1.11-1.083l-8.384-11.987c-0.301-0.428-0.527-0.912-0.655-1.42      c-0.465-1.762,0.209-3.579,1.721-4.631l11.732-8.21l6.695,9.549l6.694,9.549L325.134,298.822z M505.23,183.236L350.143,291.839      c-1.298,0.912-2.872,1.259-4.443,0.989c-1.572-0.277-2.944-1.148-3.859-2.46l-14.206-20.265l-1.909-2.724c0,0,0,0-0.001-0.001      l-0.321-0.459c-0.922-1.319-1.278-2.92-0.999-4.511c0.277-1.581,1.143-2.951,2.441-3.859l155.058-108.604      c1.052-0.734,2.258-1.088,3.452-1.088c1.904,0,3.777,0.895,4.947,2.568l16.428,23.466      C508.621,177.579,507.945,181.322,505.23,183.236z"/>
			</g>
		</g>
	</g>
	<g>
		<path style="fill:#FD8A02;" d="M118.092,67.234c-1.89,2.107-5.753,4.686-9.279,13.418c-0.316,0.783-0.647,1.572-1.081,2.291    c-0.604,1.002-1.84,1.037-2.502,0.044c-1.494-2.244-1.498-5.754-6.512-11.941c-2.943-3.63-5.864-4.821-3.279-6.913    c6.444-5.215,8.806-13.21,10.007-15.311c0.518-0.907,1.699-0.951,2.325-0.126c0.671,0.884,1.003,1.944,1.395,2.971    c2.896,7.596,7.056,11.135,8.748,12.849C118.339,64.945,118.744,66.509,118.092,67.234z"/>
		<path style="fill:#FD8A02;" d="M203.074,85.238c-2.177,2.426-6.62,5.385-10.688,15.454c-0.365,0.901-0.746,1.81-1.245,2.639    c-0.696,1.154-2.12,1.193-2.881,0.05c-1.723-2.587-1.726-6.627-7.501-13.752c-3.389-4.182-6.754-5.553-3.777-7.962    c7.422-6.007,10.143-15.215,11.526-17.635c0.597-1.045,1.957-1.095,2.677-0.146c0.773,1.018,1.156,2.239,1.606,3.421    c3.343,8.765,8.15,12.849,10.076,14.799C203.358,82.601,203.825,84.402,203.074,85.238z"/>
		<path style="fill:#FD8A02;" d="M45.747,115.842c-0.454,0.506-0.914,1.012-1.418,1.467c-7.103,6.406-8.919,13.98-10.514,16.626    c-0.695,1.154-2.119,1.194-2.881,0.051c-0.531-0.797-0.925-1.713-1.235-2.626c-4.828-14.245-14.495-15.485-10.042-19.089    c7.422-6.007,10.143-15.214,11.526-17.635c0.597-1.044,1.956-1.095,2.678-0.145c0.772,1.018,1.155,2.239,1.606,3.421    c3.343,8.765,8.151,12.849,10.076,14.798C46.031,113.205,46.499,115.004,45.747,115.842z"/>
		<path style="fill:#FD8A02;" d="M365.63,394.373c-1.891,2.107-5.753,4.686-9.28,13.418c-0.316,0.783-0.647,1.572-1.081,2.291    c-0.604,1.002-1.84,1.037-2.501,0.044c-1.494-2.244-1.498-5.754-6.512-11.941c-2.943-3.63-5.863-4.821-3.279-6.913    c6.444-5.216,8.806-13.21,10.007-15.311c0.518-0.907,1.699-0.951,2.325-0.127c0.671,0.884,1.003,1.944,1.395,2.971    c2.896,7.596,7.056,11.135,8.748,12.849C365.876,392.084,366.281,393.648,365.63,394.373z"/>
		<path style="fill:#FD8A02;" d="M465.535,413.922c-2.177,2.425-6.621,5.384-10.688,15.454c-0.364,0.901-0.745,1.81-1.244,2.639    c-0.695,1.154-2.12,1.194-2.881,0.051c-1.723-2.587-1.726-6.627-7.501-13.753c-3.389-4.182-6.754-5.553-3.777-7.962    c7.422-6.007,10.143-15.215,11.526-17.635c0.597-1.045,1.957-1.095,2.677-0.146c0.773,1.019,1.155,2.24,1.607,3.421    c3.343,8.765,8.15,12.849,10.076,14.799C465.819,411.285,466.286,413.086,465.535,413.922z"/>
		<path style="fill:#FD8A02;" d="M284.037,444.912c-2.177,2.425-6.621,5.385-10.688,15.454c-0.364,0.901-0.745,1.81-1.244,2.639    c-0.696,1.154-2.12,1.194-2.881,0.05c-1.723-2.587-1.726-6.627-7.501-13.753c-3.389-4.182-6.754-5.553-3.777-7.962    c7.422-6.008,10.143-15.215,11.526-17.635c0.597-1.045,1.957-1.096,2.678-0.146c0.773,1.018,1.156,2.24,1.606,3.422    c3.343,8.765,8.15,12.849,10.076,14.799C284.321,442.275,284.787,444.076,284.037,444.912z"/>
	</g>
</g>















</svg>
